<svg xmlns="http://www.w3.org/2000/svg" width="97.554" height="86.745" viewBox="0 0 97.554 86.745">
  <g id="diploma" transform="translate(-982.5 -2093.5)">
    <rect id="Rectangle_21" data-name="Rectangle 21" width="92.554" height="62.296" rx="5" transform="translate(985 2096)" fill="none" stroke="#100e37" stroke-width="5"/>
    <line id="Line_1" data-name="Line 1" x2="66.745" transform="translate(997.904 2107.569)" fill="none" stroke="#100e37" stroke-width="5"/>
    <line id="Line_2" data-name="Line 2" x2="66.745" transform="translate(997.904 2120.028)" fill="none" stroke="#100e37" stroke-width="5"/>
    <line id="Line_3" data-name="Line 3" x2="35.598" transform="translate(997.904 2133.377)" fill="none" stroke="#100e37" stroke-width="5"/>
    <line id="Line_4" data-name="Line 4" x2="35.598" transform="translate(997.904 2146.727)" fill="none" stroke="#100e37" stroke-width="5"/>
    <path id="Polygon_1" data-name="Polygon 1" d="M11.269.832a1,1,0,0,1,1.49,0L14.79,3.1a1,1,0,0,0,.894.322l3.046-.461a1,1,0,0,1,1.149.967l.064,2.962a1,1,0,0,0,.49.839l2.59,1.535a1,1,0,0,1,.263,1.5L21.4,13.053a1,1,0,0,0-.172.964L22.2,16.8a1,1,0,0,1-.754,1.31l-3,.581a1,1,0,0,0-.739.613L16.6,22.1a1,1,0,0,1-1.4.512l-2.71-1.456a1,1,0,0,0-.947,0L8.83,22.607a1,1,0,0,1-1.4-.512L6.321,19.307a1,1,0,0,0-.739-.613l-3-.581a1,1,0,0,1-.754-1.31l.97-2.787a1,1,0,0,0-.172-.964L.74,10.758A1,1,0,0,1,1,9.263l2.59-1.535a1,1,0,0,0,.49-.839l.064-2.962A1,1,0,0,1,5.3,2.961l3.046.461A1,1,0,0,0,9.238,3.1Z" transform="translate(1041.066 2128.038)" fill="none" stroke="#100e37" stroke-width="4"/>
    <path id="Path_1" data-name="Path 1" d="M879.744,2212v17.121l6.741-5.43,5.43,5.43V2212" transform="translate(168.214 -53.704)" fill="none" stroke="#100e37" stroke-width="4"/>
  </g>
</svg>
