<svg xmlns="http://www.w3.org/2000/svg" width="80" height="56" viewBox="0 0 80 56">
  <path id="Icon_awesome-truck-moving" data-name="Icon awesome-truck-moving" d="M77.663,27.913,70.35,20.6a8,8,0,0,0-5.663-2.338H60V6.25a4,4,0,0,0-4-4H4a4,4,0,0,0-4,4v42A9.975,9.975,0,0,0,18,54.2a9.975,9.975,0,0,0,18-5.95,10.535,10.535,0,0,0-.2-2H56.2a9.607,9.607,0,0,0-.2,2,10,10,0,1,0,20,0,10.535,10.535,0,0,0-.2-2H78a2.006,2.006,0,0,0,2-2V33.563A7.974,7.974,0,0,0,77.663,27.913ZM10,52.25a4,4,0,1,1,4-4A4.012,4.012,0,0,1,10,52.25Zm16,0a4,4,0,1,1,4-4A4.012,4.012,0,0,1,26,52.25Zm34-28h4.688a1.986,1.986,0,0,1,1.413.588l5.412,5.412H60Zm6,28a4,4,0,1,1,4-4A4.012,4.012,0,0,1,66,52.25Z" transform="translate(0 -2.25)" fill="#fff"/>
</svg>
