<svg xmlns="http://www.w3.org/2000/svg" width="53.948" height="71.931" viewBox="0 0 53.948 71.931">
  <path id="Icon_awesome-award" data-name="Icon awesome-award" d="M13.644,50.946c-1.221-1.221-.584-.877-3.529-1.665A10.136,10.136,0,0,1,6.543,47.41L.169,63.038a2.248,2.248,0,0,0,2.168,3.095l7.4-.282,5.091,5.378a2.247,2.247,0,0,0,3.713-.7L25.856,52.6a10.082,10.082,0,0,1-12.211-1.656ZM53.779,63.038,47.405,47.41a10.113,10.113,0,0,1-3.573,1.871c-2.96.792-2.311.447-3.529,1.665A10.084,10.084,0,0,1,28.091,52.6L35.4,70.531a2.248,2.248,0,0,0,3.713.7l5.093-5.378,7.4.282a2.249,2.249,0,0,0,2.168-3.095ZM36.949,47.767c2.147-2.185,2.393-2,5.45-2.829a5.709,5.709,0,0,0,4-4.071c1.051-3.99.778-3.508,3.646-6.427a5.828,5.828,0,0,0,1.464-5.561c-1.049-3.987-1.051-3.431,0-7.422A5.828,5.828,0,0,0,50.043,15.9c-2.867-2.919-2.595-2.439-3.646-6.427a5.709,5.709,0,0,0-4-4.071c-3.917-1.069-3.445-.79-6.315-3.71A5.59,5.59,0,0,0,30.62.2C26.7,1.264,27.251,1.265,23.328.2a5.587,5.587,0,0,0-5.464,1.491C15,4.606,15.469,4.328,11.551,5.4a5.709,5.709,0,0,0-4,4.071C6.5,13.457,6.773,12.976,3.906,15.9a5.825,5.825,0,0,0-1.464,5.561c1.049,3.984,1.051,3.428,0,7.421a5.831,5.831,0,0,0,1.464,5.562c2.867,2.919,2.595,2.437,3.646,6.427a5.709,5.709,0,0,0,4,4.071c3.144.857,3.379.722,5.448,2.829a5.583,5.583,0,0,0,6.988.818,5.574,5.574,0,0,1,5.975,0A5.582,5.582,0,0,0,36.949,47.767ZM13.72,24.721a13.256,13.256,0,1,1,13.254,13.49A13.373,13.373,0,0,1,13.72,24.721Z" transform="translate(0 0)" fill="#100e37"/>
</svg>
