<svg xmlns="http://www.w3.org/2000/svg" width="80.861" height="72.091" viewBox="0 0 80.861 72.091">
  <path id="Icon_metro-ship" data-name="Icon metro-ship" d="M74.949,68.336a2.526,2.526,0,0,1,3.621,0l5.149,5.149L80.1,77.106l-3.339-3.339L73.42,77.106a2.526,2.526,0,0,1-3.621,0L66.46,73.767l-3.339,3.339a2.526,2.526,0,0,1-3.621,0l-3.339-3.339-3.339,3.339a2.526,2.526,0,0,1-3.621,0l-3.339-3.339-3.339,3.339a2.526,2.526,0,0,1-3.621,0l-3.339-3.339-3.339,3.339a2.526,2.526,0,0,1-3.621,0l-3.339-3.339-3.339,3.339a2.526,2.526,0,0,1-3.621,0l-3.339-3.339-3.339,3.339a2.526,2.526,0,0,1-3.621,0L2.858,71.957l3.621-3.621,3.339,3.339,3.339-3.339a2.526,2.526,0,0,1,3.621,0l3.339,3.339,3.339-3.339a2.526,2.526,0,0,1,3.621,0l3.339,3.339,3.339-3.339a2.526,2.526,0,0,1,3.621,0l3.339,3.339,3.339-3.339a2.526,2.526,0,0,1,3.621,0l3.339,3.339,3.339-3.339a2.526,2.526,0,0,1,3.621,0l3.339,3.339,3.339-3.339a2.526,2.526,0,0,1,3.621,0l3.339,3.339ZM11.628,66.807a2.526,2.526,0,0,1-3.621,0L2.858,61.658l3.621-3.621,3.339,3.3,3.339-3.3a2.526,2.526,0,0,1,3.621,0l3.339,3.3,2.575-2.575V46.974L14.243,34.342a2.521,2.521,0,0,1-.282-2.273A2.42,2.42,0,0,1,15.57,30.44l7.121-2.333V16.078H27.84V10.929h10.3V5.78h10.3v5.149h10.3v5.149h5.149V28.107l7.121,2.333a2.42,2.42,0,0,1,1.609,1.629,2.521,2.521,0,0,1-.282,2.273L63.886,46.974V58.761l.764-.724a2.526,2.526,0,0,1,3.621,0l3.339,3.3,3.339-3.3a2.526,2.526,0,0,1,3.621,0l5.149,5.149L80.1,66.807l-3.339-3.339L73.42,66.807a2.526,2.526,0,0,1-3.621,0L66.46,63.468l-3.339,3.339a2.526,2.526,0,0,1-3.621,0l-3.339-3.339-3.339,3.339a2.526,2.526,0,0,1-3.621,0l-3.339-3.339-3.339,3.339a2.526,2.526,0,0,1-3.621,0l-3.339-3.339-3.339,3.339a2.526,2.526,0,0,1-3.621,0l-3.339-3.339-3.339,3.339a2.526,2.526,0,0,1-3.621,0l-3.339-3.339ZM27.84,21.228v5.149l15.448-5.149,15.448,5.149V21.228H53.587V16.078H32.99v5.149H27.84Z" transform="translate(-2.858 -5.78)" fill="#fff"/>
</svg>
